<svg xmlns="http://www.w3.org/2000/svg" fill="none" viewBox="0 0 480 209" height="209" width="480">
<path fill="#31B882" d="M370.29 149.259L358.018 136.987L351.692 143.312L363.964 155.585L370.29 149.259Z"></path>
<path fill="#006451" d="M366.052 175.411L342.869 152.179L353.813 141.235L366.105 153.527L363.925 155.707L368.275 160.06C372.598 164.386 371.861 171.59 366.752 174.951L366.052 175.411Z"></path>
<path fill="#31B882" d="M356.303 155.186L348.12 147.003L342.883 152.24L366.929 176.287L368.767 174.449L355.264 160.946L356.303 155.186Z"></path>
<path fill="#935A30" d="M350.39 72.8646L389.12 111.697C393.966 116.555 394.049 124.392 389.308 129.353L370.281 149.26L357.719 137.254L373.549 120.692L338.086 85.1358L350.39 72.8646Z" clip-rule="evenodd" fill-rule="evenodd"></path>
<path fill="#006451" d="M350.391 72.8648L380.139 102.692L367.836 114.963L338.087 85.1358L350.391 72.8648Z" clip-rule="evenodd" fill-rule="evenodd"></path>
<path fill="#2B2F36" d="M130.879 149.475L118.559 137.155L112.209 143.505L124.529 155.825L130.879 149.475Z"></path>
<path fill="#2B2F36" d="M126.764 175.694L103.397 152.277L114.428 141.246L126.817 153.635L124.62 155.832L129.005 160.22C133.361 164.581 132.619 171.841 127.47 175.229L126.764 175.694Z"></path>
<path fill="#5B5D69" d="M116.829 155.199L108.689 147.059L103.41 152.338L127.33 176.258L129.182 174.406L115.75 160.974L116.829 155.199Z"></path>
<path fill="#6C2B06" d="M114.06 76.3232L149.428 111.742C154.284 116.604 154.364 124.456 149.608 129.417L130.579 149.268L118.035 137.243L133.856 120.739L101.764 88.6017L114.06 76.3232Z" clip-rule="evenodd" fill-rule="evenodd"></path>
<path fill="#0D2482" d="M114.071 76.3067L137.013 99.31L124.709 111.581L101.767 88.5776L114.071 76.3067Z" clip-rule="evenodd" fill-rule="evenodd"></path>
<path fill="#FAA030" d="M247.354 149.386L235.106 137.088L228.706 143.441L241.002 155.737L247.354 149.386Z"></path>
<path fill="#FF693D" d="M243.116 175.464L219.925 152.223L230.927 141.221L243.224 153.517L241.032 155.708L245.351 160.031C249.693 164.377 248.957 171.613 243.827 174.995L243.116 175.464Z"></path>
<path fill="#FAA030" d="M233.422 155.266L225.424 147.268L220.158 152.533L243.662 176.037L245.51 174.19L232.311 160.991L233.422 155.266Z"></path>
<path fill="#6C2B06" d="M234.17 79.1766L267.092 111.837C272.07 116.776 272.076 124.824 267.104 129.769L247.351 149.416L235.096 137.096L251.467 120.813L221.932 91.5128L234.17 79.1766Z" clip-rule="evenodd" fill-rule="evenodd"></path>
<path fill="#982A42" d="M234.172 79.1778L251.537 96.4138L239.296 108.747L221.931 91.5109L234.172 79.1778Z" clip-rule="evenodd" fill-rule="evenodd"></path>
<path fill="#14151A" d="M42.1021 132.172C23.0932 132.172 7.68347 147.582 7.68347 166.591C7.68347 185.6 23.0932 201.009 42.1021 201.009C61.111 201.009 76.5207 185.6 76.5207 166.591C76.5207 147.582 61.111 132.172 42.1021 132.172ZM0 166.591C0 143.339 18.8497 124.489 42.1021 124.489C65.3544 124.489 84.2042 143.339 84.2042 166.591C84.2042 189.843 65.3544 208.693 42.1021 208.693C18.8497 208.693 0 189.843 0 166.591Z" clip-rule="evenodd" fill-rule="evenodd"></path>
<path fill="#D9D9D9" d="M234.819 159.095H338.482V165.754H234.819V159.095Z" clip-rule="evenodd" fill-rule="evenodd"></path>
<path fill="#D9D9D9" d="M225.421 96.7134H242.217V102.712H225.421V96.7134Z"></path>
<path fill="#D9D9D9" d="M283.286 104.842L297.985 104.842C301.259 104.842 303.913 107.496 303.913 110.77C303.913 113.988 301.316 116.579 297.985 116.579H287.408V123.238H297.985C304.88 123.238 310.572 117.779 310.572 110.77C310.572 103.819 304.937 98.1829 297.985 98.1829L276.627 98.1831V113.578L237.549 113.578V102.712H230.89V115.524L180.566 165.629H240.442V158.97H196.692L235.594 120.237L276.627 120.237V162.182H283.286V104.842Z" clip-rule="evenodd" fill-rule="evenodd"></path>
<path fill="#D9D9D9" d="M196.387 113.667H234.714V120.326H196.387V113.667Z" clip-rule="evenodd" fill-rule="evenodd"></path>
<path fill="#D9D9D9" d="M114.437 158.953H218.101V165.612H114.437V158.953Z" clip-rule="evenodd" fill-rule="evenodd"></path>
<path fill="#14151A" d="M438.41 132.685C419.684 132.685 404.504 147.865 404.504 166.591C404.504 185.317 419.684 200.497 438.41 200.497C457.136 200.497 472.316 185.317 472.316 166.591C472.316 147.865 457.136 132.685 438.41 132.685ZM396.82 166.591C396.82 143.622 415.441 125.001 438.41 125.001C461.38 125.001 480 143.622 480 166.591C480 189.56 461.38 208.181 438.41 208.181C415.441 208.181 396.82 189.56 396.82 166.591Z" clip-rule="evenodd" fill-rule="evenodd"></path>
<path fill="#D9D9D9" d="M348.202 96.7068H364.998V102.706H348.202V96.7068Z"></path>
<path fill="#D9D9D9" d="M420.047 104.835L434.745 104.835C438.019 104.835 440.673 107.489 440.673 110.764C440.673 113.981 438.076 116.572 434.745 116.572H424.168V123.231H434.745C441.64 123.231 447.332 117.772 447.332 110.764C447.332 103.812 441.697 98.176 434.745 98.176L413.388 98.1763L413.387 113.571L360.329 113.571V102.705H353.67V115.517L303.346 165.622H372.354L413.387 124.768L413.387 133.744C413.387 145.144 417.912 156.077 425.967 164.143L435.137 173.631L439.925 169.004L430.716 159.475L430.696 159.455C423.877 152.636 420.046 143.387 420.046 133.744L420.047 104.835ZM408.507 120.23L361.509 120.23L372.538 156.042L408.507 120.23ZM366.47 158.963L355.441 123.151L319.472 158.963H366.47Z" clip-rule="evenodd" fill-rule="evenodd"></path>
<path fill="#D9D9D9" d="M314.102 113.661H357.494V120.32H314.102V113.661Z" clip-rule="evenodd" fill-rule="evenodd"></path>
<path fill="#D9D9D9" d="M108.503 96.7073H125.3V102.706H108.503V96.7073Z"></path>
<path fill="#D9D9D9" d="M166.369 104.836L181.067 104.836C184.341 104.836 186.995 107.49 186.995 110.765C186.995 113.982 184.398 116.573 181.067 116.573H170.49V123.232H181.067C187.962 123.232 193.654 117.773 193.654 110.765C193.654 103.813 188.019 98.177 181.067 98.177L159.71 98.1773V113.572L120.631 113.572V102.706H113.972V113.572H82.6177L31.0708 165.623H120.631V120.231L159.71 120.231V160.652H166.369V104.836ZM113.972 120.231H85.3949L47.0371 158.964H113.972V120.231Z" clip-rule="evenodd" fill-rule="evenodd"></path>
<path fill="#935A30" d="M357.495 28.939L351.335 34.7987L346.525 26.6888C349.244 24.1019 353.543 24.1981 356.144 26.9042L357.509 28.3235C357.675 28.497 357.669 28.7731 357.495 28.939Z"></path>
<path fill="#935A30" d="M340.966 51.1454L356.112 35.9993L346.672 26.5597L331.235 41.9968C322.933 50.2992 328.813 64.495 340.554 64.495L358.039 64.4949C361.726 64.4949 364.714 61.5065 364.714 57.8201C364.714 54.1337 361.726 51.1453 358.039 51.1453L340.966 51.1454Z" clip-rule="evenodd" fill-rule="evenodd"></path>
<path fill="#31B882" d="M364.714 57.8201C364.714 61.5065 361.725 64.4947 358.039 64.4945L342.717 64.4937L342.718 51.1441L358.039 51.1449C361.726 51.1451 364.714 54.1337 364.714 57.8201Z" clip-rule="evenodd" fill-rule="evenodd"></path>
<path fill="#935A30" d="M356.684 32.455C357.51 33.3236 357.476 34.6977 356.607 35.524L352.364 39.5604C351.496 40.3867 350.122 40.3524 349.295 39.4838C348.469 38.6152 348.503 37.2411 349.372 36.4148L353.615 32.3783C354.484 31.552 355.858 31.5863 356.684 32.455Z" clip-rule="evenodd" fill-rule="evenodd"></path>
<path fill="#935A30" d="M407.91 108.356L417.838 98.179L397.113 77.9628L379.243 60.0924C376.467 57.3163 371.966 57.3163 369.19 60.0924C366.413 62.8685 366.413 67.3695 369.19 70.1456L387.122 88.0785L407.91 108.356Z" clip-rule="evenodd" fill-rule="evenodd"></path>
<path fill="#31B882" d="M383.215 84.1719L369.189 70.1462C366.413 67.37 366.413 62.8691 369.189 60.093C371.965 57.3168 376.466 57.3168 379.242 60.093L393.268 74.1187L383.215 84.1719Z" clip-rule="evenodd" fill-rule="evenodd"></path>
<path fill="#31B882" d="M355.346 56.0768L344.458 66.9644L364.09 86.5965L374.978 75.7089C380.399 70.2876 380.399 61.498 374.978 56.0768C369.557 50.6555 360.767 50.6555 355.346 56.0768Z"></path>
<path fill="#935A30" d="M423.709 107.942L411.553 95.3529L405.716 94.7489L404.19 104.658L409.045 109.512C411.933 112.398 416.461 112.833 419.845 110.549L423.709 107.942Z"></path>
<path fill="#935A30" d="M421.295 97.9869C421.295 96.8093 420.341 95.8548 419.163 95.8547L412.139 95.8546C410.961 95.8546 410.006 96.8091 410.006 97.9867C410.006 99.1642 410.961 100.119 412.138 100.119L419.163 100.119C420.341 100.119 421.295 99.1644 421.295 97.9869Z" clip-rule="evenodd" fill-rule="evenodd"></path>
<path fill="#935A30" d="M353.679 89.8106L353.679 165.317L336.302 165.317L336.302 89.8106L353.679 89.8106Z" clip-rule="evenodd" fill-rule="evenodd"></path>
<path fill="#006451" d="M353.679 89.8108L353.679 117.531L336.302 117.531L336.302 89.811L353.679 89.8108Z" clip-rule="evenodd" fill-rule="evenodd"></path>
<path fill="#006451" d="M357.995 91.8565L336.302 92.2111L336.276 82.7054C336.264 78.3183 337.908 74.0884 340.88 70.861L344.498 66.9316L357.98 80.5658L357.995 91.8565Z"></path>
<path fill="#31B882" d="M353.677 165.2H336.303L336.303 174.18H353.677L353.677 165.2Z"></path>
<path fill="#006451" d="M369.117 186.586L336.307 186.551V171.079H353.684V174.16L359.739 174.163C365.902 174.165 370.511 179.825 369.266 185.861L369.117 186.586Z"></path>
<path fill="#31B882" d="M347.81 179.184H336.307V186.649H370.109V184.03H351.128L347.81 179.184Z"></path>
<path fill="#0B0E11" d="M384.276 36.5502L390.157 44.359L363.758 44.9144L369.901 36.5502C376.069 30.1726 382.055 33.8929 384.276 36.5502Z"></path>
<path fill="#0B0E11" d="M376.479 48.4327C376.479 52.5423 379.811 55.8738 383.92 55.8738C388.03 55.8738 391.361 52.5423 391.361 48.4327C391.361 44.3232 388.03 40.9917 383.92 40.9917C379.811 40.9917 376.479 44.3232 376.479 48.4327Z"></path>
<path fill="#935A30" d="M367.926 44.7696C367.926 49.6724 371.901 53.6468 376.803 53.6468C381.706 53.6468 385.681 49.6724 385.681 44.7696C385.681 39.8668 381.706 35.8923 376.803 35.8923C371.901 35.8923 367.926 39.8668 367.926 44.7696Z"></path>
<mask height="19" width="19" y="35" x="367" maskUnits="userSpaceOnUse" style="mask-type:alpha" id="mask0_2385_2313">
<path fill="#935A30" d="M376.803 35.8749C371.901 35.8749 367.926 39.8534 367.926 44.7612C367.926 49.6689 371.901 53.6475 376.803 53.6475C381.706 53.6475 385.681 49.6689 385.681 44.7612C385.681 39.8534 381.706 35.8749 376.803 35.8749Z"></path>
</mask>
<g mask="url(#mask0_2385_2313)">
<path fill="#0B0E11" d="M383.922 41.063C385.049 43.2587 387.337 44.7609 389.975 44.7609C393.731 44.7609 396.775 41.7162 396.775 37.9603C396.775 34.2044 393.731 31.1597 389.975 31.1597C387.337 31.1597 385.049 32.6619 383.922 34.8575C382.794 32.6619 380.507 31.1597 377.868 31.1597C374.113 31.1597 371.068 34.2044 371.068 37.9603C371.068 41.7162 374.113 44.7609 377.868 44.7609C380.507 44.7609 382.794 43.2587 383.922 41.063Z" clip-rule="evenodd" fill-rule="evenodd"></path>
</g>
<path fill="#0B0E11" d="M362.9 48.4325C362.9 52.5421 366.231 55.8735 370.341 55.8735C374.451 55.8735 377.782 52.5421 377.782 48.4325C377.782 44.3229 374.451 40.9915 370.341 40.9915C366.231 40.9915 362.9 44.3229 362.9 48.4325Z"></path>
<path fill="#0B0E11" d="M372.236 35.145L365.57 43.5092L375.111 42.9864L372.236 35.145Z"></path>
<path fill="#FF693D" d="M232.508 56.1357L221.752 66.8916L241.722 86.671L252.371 75.7665C257.715 70.2952 257.663 61.5435 252.256 56.1357C246.802 50.6825 237.961 50.6825 232.508 56.1357Z"></path>
<path fill="#6C2B06" d="M285.131 108.357L295.058 98.1799L274.333 77.9638L256.463 60.0934C253.687 57.3173 249.186 57.3173 246.41 60.0934C243.634 62.8695 243.634 67.3705 246.41 70.1466L264.343 88.0794L285.131 108.357Z" clip-rule="evenodd" fill-rule="evenodd"></path>
<path fill="#FF693D" d="M243.706 57.3899C246.482 54.6138 250.983 54.6138 253.759 57.3899L269.899 73.5297L259.845 83.5829L243.706 67.4431C240.929 64.667 240.929 60.166 243.706 57.3899Z" clip-rule="evenodd" fill-rule="evenodd"></path>
<path fill="#6C2B06" d="M300.898 107.898L288.793 95.3611L282.98 94.7596L281.46 104.628L286.275 109.441C289.163 112.327 293.69 112.762 297.075 110.478L300.898 107.898Z"></path>
<path fill="#6C2B06" d="M298.516 97.9876C298.516 96.8101 297.562 95.8555 296.384 95.8555L289.36 95.8553C288.182 95.8553 287.227 96.8099 287.227 97.9874C287.227 99.1649 288.182 100.12 289.359 100.12L296.384 100.12C297.562 100.12 298.516 99.1651 298.516 97.9876Z" clip-rule="evenodd" fill-rule="evenodd"></path>
<path fill="#6C2B06" d="M230.96 89.8111L230.96 165.317L213.584 165.317L213.584 89.8111L230.96 89.8111Z" clip-rule="evenodd" fill-rule="evenodd"></path>
<path fill="#982A42" d="M230.96 89.8105L230.962 107.235L213.585 107.236L213.584 89.8116L230.96 89.8105Z" clip-rule="evenodd" fill-rule="evenodd"></path>
<path fill="#982A42" d="M235.327 91.7348L213.584 92.0844L213.523 82.9575C213.495 78.6994 215.027 74.5785 217.831 71.3737L221.753 66.8916L235.327 80.3377V91.7348Z"></path>
<path fill="#FAA030" d="M230.963 165.2H213.586L213.586 174.18H230.963L230.963 165.2Z"></path>
<path fill="#FF693D" d="M246.392 186.585L213.586 186.55V171.08H230.961V174.161L237.113 174.164C243.226 174.166 247.796 179.778 246.561 185.765L246.392 186.585Z"></path>
<path fill="#FAA030" d="M225.006 179.181H213.586V186.584H247.147V183.986H228.301L225.006 179.181Z"></path>
<path fill="#6C2B06" d="M255.253 53.0097C258.785 56.5421 264.512 56.5422 268.045 53.0097C271.577 49.4772 271.577 43.7499 268.045 40.2174C264.512 36.6849 258.785 36.6849 255.253 40.2174C251.72 43.7499 251.72 49.4772 255.253 53.0097Z"></path>
<path fill="black" d="M255.253 53.0102L268.045 40.2179C268.045 40.2178 268.045 40.2176 268.045 40.2174C264.512 36.6849 258.785 36.6849 255.253 40.2174C251.72 43.7499 251.72 49.4772 255.253 53.0097C255.253 53.0098 255.253 53.01 255.253 53.0102Z" clip-rule="evenodd" fill-rule="evenodd"></path>
<path fill="#0B0E11" d="M247.494 45.2477C247.444 45.2499 247.394 45.2515 247.344 45.2525C244.16 45.3123 241.531 42.7801 241.471 39.5965C241.411 36.4129 243.944 33.7836 247.127 33.7237C248.993 33.6886 250.669 34.5439 251.748 35.8989L251.767 35.8565L258.192 45.2777L247.482 45.2732L247.494 45.2477Z" clip-rule="evenodd" fill-rule="evenodd"></path>
<path fill="#6C2B06" d="M108.125 32.6787L126.904 13.8998L117.464 4.46024L98.5651 23.3597C93.4183 28.5065 93.4184 36.8511 98.5652 41.9978L117.433 60.8656C120.04 63.4722 124.266 63.4722 126.873 60.8655C129.479 58.2588 129.479 54.0326 126.873 51.4259L108.125 32.6787Z" clip-rule="evenodd" fill-rule="evenodd"></path>
<path fill="#1773EB" d="M126.872 60.8655C124.265 63.4721 120.039 63.472 117.432 60.8653L101.172 44.6037L110.611 35.1644L126.872 51.4259C129.479 54.0326 129.479 58.2589 126.872 60.8655Z" clip-rule="evenodd" fill-rule="evenodd"></path>
<path fill="#6C2B06" d="M128.411 6.68411L122.283 12.5776L117.429 4.49436C120.134 1.89248 124.433 1.96507 127.049 4.65679L128.421 6.0686C128.589 6.24119 128.585 6.51728 128.411 6.68411Z"></path>
<path fill="#6C2B06" d="M127.39 10.4423C128.216 11.3109 128.182 12.685 127.313 13.5113L123.07 17.5477C122.201 18.3741 120.827 18.3398 120.001 17.4711C119.174 16.6025 119.209 15.2284 120.077 14.4021L124.321 10.3656C125.189 9.53931 126.563 9.57361 127.39 10.4423Z" clip-rule="evenodd" fill-rule="evenodd"></path>
<path fill="#6C2B06" d="M168.211 108.358L178.139 98.1803L157.4 77.9501L135.031 55.8326C132.239 53.0722 127.738 53.0976 124.978 55.8894C122.217 58.6812 122.243 63.1821 125.035 65.9424L147.438 88.0939L168.211 108.358Z" clip-rule="evenodd" fill-rule="evenodd"></path>
<path fill="#328DFD" d="M156.762 77.3192L135.031 55.8325C132.239 53.0721 127.738 53.0976 124.978 55.8894C122.218 58.6811 122.243 63.182 125.035 65.9424L146.766 87.4291L156.762 77.3192Z" clip-rule="evenodd" fill-rule="evenodd"></path>
<path fill="#328DFD" d="M115.647 56.0778L104.72 67.0051L124.352 86.6372L135.279 75.7099C140.7 70.2886 140.7 61.499 135.279 56.0778C129.858 50.6565 121.068 50.6565 115.647 56.0778Z"></path>
<path fill="#6C2B06" d="M184.01 107.943L171.854 95.3537L166.017 94.7497L164.49 104.659L169.346 109.513C172.234 112.399 176.762 112.834 180.146 110.55L184.01 107.943Z"></path>
<path fill="#6C2B06" d="M181.597 97.9869C181.597 96.8093 180.642 95.8548 179.465 95.8547L172.44 95.8546C171.263 95.8546 170.308 96.8091 170.308 97.9867C170.308 99.1642 171.262 100.119 172.44 100.119L179.465 100.119C180.642 100.119 181.597 99.1644 181.597 97.9869Z" clip-rule="evenodd" fill-rule="evenodd"></path>
<path fill="#D9D9D9" d="M161.429 34.5385C160.915 33.6488 159.778 33.3439 158.888 33.8576L149.054 39.5353L150.914 42.7573L160.748 37.0796C161.638 36.5659 161.943 35.4282 161.429 34.5385Z"></path>
<path fill="#6C2B06" d="M151.475 53.285C147.911 56.8487 142.133 56.8487 138.569 53.285C135.006 49.7212 135.006 43.9432 138.569 40.3795C142.133 36.8157 147.911 36.8157 151.475 40.3795C155.039 43.9432 155.039 49.7212 151.475 53.285Z"></path>
<path fill="#AEB4BC" d="M136.841 50.8823C135.633 48.7903 135.306 46.3041 135.931 43.9707C136.556 41.6374 138.083 39.648 140.175 38.4401C142.267 37.2323 144.753 36.905 147.087 37.5302C149.42 38.1554 151.409 39.682 152.617 41.774L144.729 46.3281L136.841 50.8823Z"></path>
<path fill="#6C2B06" d="M113.98 86.1704L113.979 165.317L96.6024 165.317L96.6029 86.1703L113.98 86.1704Z" clip-rule="evenodd" fill-rule="evenodd"></path>
<path fill="#0D2482" d="M118.296 91.8298L96.6047 92.1719L96.5775 82.6792C96.5649 78.2919 98.2086 74.0614 101.18 70.8336L104.722 66.9866L118.283 80.5687L118.296 91.8298Z"></path>
<path fill="#76808F" d="M129.391 186.619L96.6025 186.584V171.043H113.969V174.138L120.023 174.14C126.183 174.143 130.791 179.795 129.552 185.829L129.391 186.619Z"></path>
<path fill="#5B5D69" d="M108.093 179.184H96.6039V186.649H130.368V184.03H111.408L108.093 179.184Z"></path>
<path fill="#76808F" d="M113.981 165.2H96.6037L96.6037 174.181H113.981L113.981 165.2Z"></path>
<path fill="#0D2482" d="M113.981 83.6458L113.982 99.6722L96.6048 99.6725L96.6045 83.6461L113.981 83.6458Z" clip-rule="evenodd" fill-rule="evenodd"></path>
</svg>
